<svg version="1" xmlns="http://www.w3.org/2000/svg" width="270" height="270" viewBox="0 0 301 330"><g fill="#19384c"><path d="M119.5 2.1C108.1 3.4 106 3.9 106 5.8c.1.9 1.2 6.9 2.5 13.2 1.3 6.3 2.2 11.6 2 11.8-.2.2-2.2-5.5-4.6-12.7l-4.3-13-3 .6C87.9 7.7 60 19.1 60 21.4c0 .7.4 1.6.8 2.1.5.6 1.9 2.8 3.1 5l2.2 4-2.8-3.4c-1.5-1.9-3.5-4.3-4.3-5.3-1.4-1.8-1.8-1.7-8.7 2.7-4 2.6-7.3 5.1-7.3 5.7 0 .6 3 4.7 6.8 9.2 11.6 13.9 10.8 13.7-5-1.3l-5.7-5.4-3.8 2.9c-2.1 1.5-8 6.9-13.1 11.9l-9.4 9 4.9 4.3 4.8 4.3-5.7-2.8c-4-1.9-6.1-2.4-6.8-1.7-.7.7 3.1 3.6 12.5 9.3 7.4 4.5 13.5 8.4 13.5 8.6 0 .2-6.3-2.5-13.9-6.1C14.4 70.9 7.7 68 7.2 68c-1.6 0-6.5 7.1-5.6 8 .5.5 16.7 7.1 35.9 14.8 32.4 13 35.1 13.9 36.8 12.4 1.7-1.5 1.5-1.8-2.5-5.9-5-5.1-4.5-5.4 2-1.3 5.5 3.4 7.4 2.5 4.2-2l-2.3-3.2 4.2 2.2c3.9 1.9 6.1 2 6.1.1 0-.4-9.7-9.2-21.5-19.6C52.7 63.1 43 54.4 43 54.2c0-.2.6 0 1.2.6C56.5 64.6 90.6 90 91.5 90c.6 0 1.9-.6 2.9-1.3 1.7-1.3 1.4-2-4.9-11-3.6-5.3-6.4-9.7-6.2-9.7.3 0 3.7 4.3 7.6 9.5 6.2 8.3 7.4 9.4 9.1 8.5 1-.5 3.1-1.5 4.5-2l2.7-1-9.7-18.5C92.2 54.3 88.1 46 88.4 46c.3 0 5.3 8 11.1 17.7 5.9 9.8 10.9 18 11 18.2.2.1.8 0 1.4-.3.6-.4-.3-3.7-2.4-8.7-4.2-9.8-3.3-9.7 1.5.1 3.2 6.5 3.6 7.1 6 6.5 1.4-.4 2.9-1 3.3-1.4.5-.5-3.9-13.4-9.7-28.6-5.8-15.3-10.4-28-10.3-28.2.2-.1 5.9 12.5 12.7 28l12.3 28.3 2.9-.4c1.5-.2 3-.8 3.3-1.2.3-.5 0-4.3-.6-8.5s-.8-7.9-.6-8.1c.2-.3 1.5 3.4 2.8 8.1 2.1 7.6 2.6 8.5 4.4 8.1 1.1-.3 2.7-.6 3.7-.6 1.3 0 1.5-.8 1.2-3.8-.8-8.7-1.2-22.5-.5-20.7.5 1.1 1.6 7.1 2.7 13.3l1.8 11.3 2.9-.3 2.9-.3v-26l.9 8.5c1.7 15.7 2 16.8 3.6 17.4.9.4 1.8.4 2.2.1.3-.4.8-13.3 1.1-28.8.4-15.5.7-23.4.8-17.6.1 5.8.5 18.8.9 28.7.6 16.7.8 18.2 2.4 18.2 1.4 0 2-1 2.5-4 .9-5.4 2.4-5.1 2.4.6 0 3.7.3 4.5 1.7 4.2 1.2-.2 2.4-2.9 4.1-9.3 1.3-5 2.7-9.3 3.1-9.8.4-.4.1 3.8-.7 9.4-1.6 10.9-1.3 11.8 3.3 11.9 1.7 0 3.1-2.9 9-18.9 3.9-10.4 7.2-18.8 7.3-18.6.2.2-2.1 9-5.2 19.6-4.5 15.1-5.4 19.4-4.4 20.1 2.7 1.7 4.2 0 8.3-9.4 2.2-5.4 4.4-10 4.7-10.4.4-.3-.4 3.4-1.8 8.3-3.7 13.2-3.8 13.9-2 14.6 1.2.5 4.1-4.5 13.6-23.3 6.6-13.2 12.3-24 12.6-24 .3 0 .3.3.1.7-2.5 4.2-20.6 48.6-20.2 49.3 1.3 2.1 2.6.8 7.1-7 2.5-4.4 4.8-8 5-8 .2 0-.6 2.4-1.7 5.2-4.7 11.8-4.9 12.6-3.2 13.3 2 .7 1 2 13.8-17 16.1-23.8 16.2-23.5 1.1 2.5-5.3 9-9.6 16.7-9.6 17.1 0 .4.8 1 1.8 1.4 1.2.4 2.5-.3 4.5-2.6 3.1-3.8 3.4-3.3 1.1 1.4l-1.6 3.2 4.3-4c2.4-2.2 5.9-5.4 7.8-7l3.5-3-3.9 5.5c-2.2 3-4.9 6.9-6.2 8.6-2.2 3-2.2 3.1-.5 4.7 1 1 2.2 1.7 2.7 1.7.4 0 6.4-5.3 13.4-11.7 6.9-6.4 14.4-13.3 16.6-15.2l4-3.6-4.1 4.5c-2.2 2.5-9.1 10-15.3 16.7-9.8 10.7-12.2 14.3-9.2 14.3.4 0 5.4-3.8 11-8.5 5.7-4.7 10.6-8.5 10.9-8.5.3 0-3.9 4.5-9.3 10.1-9.4 9.7-9.7 10.1-8 11.9 1.7 1.9 2 1.8 12.6-5.5 6-4.1 10.9-7.3 10.9-7.1 0 .2-4.3 4.1-9.5 8.7-11.2 9.7-11.4 12.3-.4 5.4l7.4-4.6-5.5 5.2-5.5 5.1 4.8-2.6c12.8-7.1 14.1-7.7 12.1-5.9-1.2 1-5.6 4.2-9.8 7.1-6.1 4.2-7.5 5.6-6.6 6.7.9 1.1 3.7.3 15.2-4.1 7.8-3 14.2-5.3 14.4-5.1.2.1-5.5 3.3-12.6 7.1-11.9 6.2-15.2 8.6-11.7 8.6.8 0 4.1-1.1 7.5-2.5 8.6-3.5 8.8-3.1 1 1.6-3.8 2.2-6.8 4.4-6.8 4.9 0 .6 2.8-.1 6.3-1.4 10.1-3.9 10.6-3.9 3 .1-7.2 3.7-8 4.6-6.5 7.1.7 1 2.9.9 11.2-.8 5.7-1.1 10.6-1.8 10.8-1.6.2.3-4.1 1.9-9.7 3.6-7.7 2.3-9.9 3.4-9.5 4.5.7 1.8 2.8 1.8 11.6.1 3.7-.7 6.5-1 6.3-.6-.2.3-3.8 1.7-7.9 3-4.2 1.3-7.6 2.7-7.6 3.1 0 .4.5 2 1 3.4l1 2.7 11.3-.5 11.2-.6-10.5 2.2c-9.8 2.1-10.5 2.4-10.2 4.4.3 2.1.9 2.3 8 2.4 15.4.3 16.6 1.1 4 2.8-5 .6-9.5 1.4-10 1.7-1.9 1.2 1.7 3.4 5.6 3.5 2.2 0 5.9.4 8.1.8 3.3.7 2.5.9-5 1-9.1.1-10.2 1-3.5 2.9l3.5 1-3.7.1-3.8.1.1 5.2c.2 8.1.9 9.4 8.3 15.1 3.8 2.8 8.4 7.3 10.2 9.9l3.2 4.7 2.1-7.7c1.1-4.2 2.3-9.6 2.7-11.8.6-4.1.6-4.2-3.2-5.2l-3.9-1 4.2-.1 4.1-.1.6-4.8c1.5-12.5 1.8-20.1 1.1-27.8-.6-7.2-.9-8.4-2.3-8-1 .2-3.9.7-6.7 1-5.4.6-3.8-.3 4.1-2.3l4.1-1.1-.9-5.7c-.9-6.6-3.8-20.5-4.4-21.5-.2-.3-3.2.5-6.5 1.8-8 3.3-8.5 2.5-.9-1.1 3.3-1.6 6-3.4 6-4 0-3.9-11.5-30.5-13.2-30.5-.5 0-2.1.7-3.6 1.6-2.6 1.6-2.6 1.6.2-.8l3-2.5-3.3-5.9c-1.8-3.2-5.1-8.3-7.3-11.3l-4-5.3-6.6 6.3c-6.8 6.6-6.7 6.2.8-2.8l4.2-5.2-4.3-5.2c-5-6-17.7-17.1-19-16.7-.4.2-2.9 3.2-5.4 6.7-5.6 8-5.8 7.3-.5-2.1 2.2-3.9 3.9-7.2 3.8-7.3-8.4-6.3-25.3-15.9-26.7-15.1-.4.3-2.7 5.5-5.1 11.6-2.4 6-4.4 10.9-4.6 10.7-.2-.1 1-5.4 2.6-11.7 1.6-6.3 3-12 3-12.6 0-.6-3.7-2.5-8.2-4.2-13.4-4.9-12-5.2-14.8 2.9-2.9 8.3-3.8 7.7-1.5-1.1 1.8-7.1 1.4-9-.9-3.6-.8 2-1.6 3.6-1.8 3.6-.2 0-.3-1.9-.3-4.2V6.6l-7.2-1.7c-3.9-.9-9.8-2-13.1-2.4l-5.9-.7-.7 3.2c-.3 1.8-.7 5.8-.7 8.9-.2 5.3-.2 5.2-1-2.4-.5-4.3-1.1-8.5-1.3-9.2-.4-.9-3.2-1.3-10.2-1.3h-9.6l.6 4.7c.5 3.4.4 4.4-.3 3.3-.6-.8-1.1-2.2-1.1-3.1 0-3.7-2.2-4.6-9.5-3.8z"/><path d="M133.8 80.6c-18.1 2.8-37.8 11.3-52.4 22.8l-7.9 6.1 5.5.7c3 .4 6.8 1.1 8.3 1.7 2.4 1 3.5.6 9.4-3.5C122.9 90.5 153.4 84.3 182 91c9.1 2.2 31.3 12.5 34.5 16 1.2 1.3-1.6.2-7.6-2.9-34.2-17.9-72.2-15.3-106.8 7.1l-6.3 4.2 2.8 2c1.6 1.1 5 4 7.5 6.3 4 3.7 4.8 4.1 5.9 2.9 2.1-2.7 16.9-11.6 23.9-14.6 12.9-5.5 21.5-7.4 34.1-7.4 13.6.1 20.5 1.7 33.6 7.9 30.7 14.4 48.4 37.8 52.1 68.5.6 4.8.7 5.1 6.1 8 3.1 1.6 5.7 2.8 6 2.6.7-.8-1.7-17.1-3.7-24.9-11.8-46.1-48-79.3-94.1-86.2-11.6-1.8-24.6-1.8-36.2.1z"/><path d="M152.2 110.5c-14.7 3.4-29.6 11.9-41.6 24-8.7 8.6-15.4 18.4-13.6 19.5 4.1 2.5 48.4 7.8 72.3 8.7 12.3.4 17.3.9 16.2 1.6-2.7 1.5-53 .2-65.4-1.7-9.1-1.4-24-4.5-29.5-6.2-1.8-.6-1.9.1-1.2 23.7.4 13.4.9 24.5 1.1 24.7.2.2 2.6-.3 5.4-1.2 2.8-.8 5.3-1.1 5.6-.6 1.3 2.2-12.6 42.6-18.9 54.9-1 1.8-1.5 3.5-1.3 3.7.3.3 7.4-2.1 15.8-5.3l15.4-5.9.7-11.4c.9-14.6 2.7-35.6 3.4-39.6l.6-3.1-10.9.4-10.8.3 15.3-4c16.2-4.1 53.6-16.4 76.2-25 7.3-2.7 13.6-5 13.9-5 2 .2-41.3 19.9-52.6 24-5.4 1.9-6.7 2.9-9.3 7-3 4.7-9.8 11.6-15.3 15.5l-2.7 2 1 14c.5 7.7 1 34.2 1 59l.1 45 4.5-4.9c6.6-7.2 18.2-22.8 24.9-33.6 17.8-28.6 31.9-62.3 42.9-102 3.9-14 4.6-13.3 1.6 1.5-4.2 20.2-10.2 39.8-17.7 57.3-2.4 5.7-4.1 10.7-3.8 11.2 1.4 2.3 17.9 5.5 41.5 8 22.4 2.4 33.4 4.2 41.3 6.9l5.6 2-4.4-6.4c-10-14.7-12.5-30.8-8.6-57 .5-3.3 1-12.8 1-21 .1-12.2-.3-16.4-1.9-22.3-6.4-22.9-22.9-42.2-45.3-52.7-4-1.9-9.9-4.2-13.2-5.1-8.3-2.3-30.9-2.8-39.3-.9z"/></g></svg>