<?xml version="1.0" standalone="no"?>
<!DOCTYPE svg PUBLIC "-//W3C//DTD SVG 20010904//EN"
 "http://www.w3.org/TR/2001/REC-SVG-20010904/DTD/svg10.dtd">
<svg version="1.0" xmlns="http://www.w3.org/2000/svg"
 width="270px" height="270px" viewBox="0 0 301.000000 330.000000"
 preserveAspectRatio="xMidYMid meet">
<metadata>
Created by potrace 1.15, written by Peter Selinger 2001-2017
</metadata>
<g transform="translate(0.000000,330.000000) scale(0.100000,-0.100000)"
fill="#19384c" stroke="none">
<path d="M1195 3279 c-114 -13 -135 -18 -135 -37 1 -9 12 -69 25 -132 13 -63
22 -116 20 -118 -2 -2 -22 55 -46 127 l-43 130 -30 -6 c-107 -20 -386 -134
-386 -157 0 -7 4 -16 8 -21 5 -6 19 -28 31 -50 l22 -40 -28 34 c-15 19 -35 43
-43 53 -14 18 -18 17 -87 -27 -40 -26 -73 -51 -73 -57 0 -6 30 -47 68 -92 116
-139 108 -137 -50 13 l-57 54 -38 -29 c-21 -15 -80 -69 -131 -119 l-94 -90 49
-43 48 -43 -57 28 c-40 19 -61 24 -68 17 -7 -7 31 -36 125 -93 74 -45 135 -84
135 -86 0 -2 -63 25 -139 61 -77 35 -144 64 -149 64 -16 0 -65 -71 -56 -80 5
-5 167 -71 359 -148 324 -130 351 -139 368 -124 17 15 15 18 -25 59 -50 51
-45 54 20 13 55 -34 74 -25 42 20 l-23 32 42 -22 c39 -19 61 -20 61 -1 0 4
-97 92 -215 196 -118 104 -215 191 -215 193 0 2 6 0 12 -6 123 -98 464 -352
473 -352 6 0 19 6 29 13 17 13 14 20 -49 110 -36 53 -64 97 -62 97 3 0 37 -43
76 -95 62 -83 74 -94 91 -85 10 5 31 15 45 20 l27 10 -97 185 c-53 102 -94
185 -91 185 3 0 53 -80 111 -177 59 -98 109 -180 110 -182 2 -1 8 0 14 3 6 4
-3 37 -24 87 -42 98 -33 97 15 -1 32 -65 36 -71 60 -65 14 4 29 10 33 14 5 5
-39 134 -97 286 -58 153 -104 280 -103 282 2 1 59 -125 127 -280 l123 -283 29
4 c15 2 30 8 33 12 3 5 0 43 -6 85 -6 42 -8 79 -6 81 2 3 15 -34 28 -81 21
-76 26 -85 44 -81 11 3 27 6 37 6 13 0 15 8 12 38 -8 87 -12 225 -5 207 5 -11
16 -71 27 -133 l18 -113 29 3 29 3 0 130 0 130 9 -85 c17 -157 20 -168 36
-174 9 -4 18 -4 22 -1 3 4 8 133 11 288 4 155 7 234 8 176 1 -58 5 -188 9
-287 6 -167 8 -182 24 -182 14 0 20 10 25 40 9 54 24 51 24 -6 0 -37 3 -45 17
-42 12 2 24 29 41 93 13 50 27 93 31 98 4 4 1 -38 -7 -94 -16 -109 -13 -118
33 -119 17 0 31 29 90 189 39 104 72 188 73 186 2 -2 -21 -90 -52 -196 -45
-151 -54 -194 -44 -201 27 -17 42 0 83 94 22 54 44 100 47 104 4 3 -4 -34 -18
-83 -37 -132 -38 -139 -20 -146 12 -5 41 45 136 233 66 132 123 240 126 240 3
0 3 -3 1 -7 -25 -42 -206 -486 -202 -493 13 -21 26 -8 71 70 25 44 48 80 50
80 2 0 -6 -24 -17 -52 -47 -118 -49 -126 -32 -133 20 -7 10 -20 138 170 161
238 162 235 11 -25 -53 -90 -96 -167 -96 -171 0 -4 8 -10 18 -14 12 -4 25 3
45 26 31 38 34 33 11 -14 l-16 -32 43 40 c24 22 59 54 78 70 l35 30 -39 -55
c-22 -30 -49 -69 -62 -86 -22 -30 -22 -31 -5 -47 10 -10 22 -17 27 -17 4 0 64
53 134 117 69 64 144 133 166 152 l40 36 -41 -45 c-22 -25 -91 -100 -153 -167
-98 -107 -122 -143 -92 -143 4 0 54 38 110 85 57 47 106 85 109 85 3 0 -39
-45 -93 -101 -94 -97 -97 -101 -80 -119 17 -19 20 -18 126 55 60 41 109 73
109 71 0 -2 -43 -41 -95 -87 -112 -97 -114 -123 -4 -54 l74 46 -55 -52 -55
-51 48 26 c128 71 141 77 121 59 -12 -10 -56 -42 -98 -71 -61 -42 -75 -56 -66
-67 9 -11 37 -3 152 41 78 30 142 53 144 51 2 -1 -55 -33 -126 -71 -119 -62
-152 -86 -117 -86 8 0 41 11 75 25 86 35 88 31 10 -16 -38 -22 -68 -44 -68
-49 0 -6 28 1 63 14 101 39 106 39 30 -1 -72 -37 -80 -46 -65 -71 7 -10 29 -9
112 8 57 11 106 18 108 16 2 -3 -41 -19 -97 -36 -77 -23 -99 -34 -95 -45 7
-18 28 -18 116 -1 37 7 65 10 63 6 -2 -3 -38 -17 -79 -30 -42 -13 -76 -27 -76
-31 0 -4 5 -20 10 -34 l10 -27 113 5 112 6 -105 -22 c-98 -21 -105 -24 -102
-44 3 -21 9 -23 80 -24 154 -3 166 -11 40 -28 -50 -6 -95 -14 -100 -17 -19
-12 17 -34 56 -35 22 0 59 -4 81 -8 33 -7 25 -9 -50 -10 -91 -1 -102 -10 -35
-29 l35 -10 -37 -1 -38 -1 1 -52 c2 -81 9 -94 83 -151 38 -28 84 -73 102 -99
l32 -47 21 77 c11 42 23 96 27 118 6 41 6 42 -32 52 l-39 10 42 1 41 1 6 48
c15 125 18 201 11 278 -6 72 -9 84 -23 80 -10 -2 -39 -7 -67 -10 -54 -6 -38 3
41 23 l41 11 -9 57 c-9 66 -38 205 -44 215 -2 3 -32 -5 -65 -18 -80 -33 -85
-25 -9 11 33 16 60 34 60 40 0 39 -115 305 -132 305 -5 0 -21 -7 -36 -16 -26
-16 -26 -16 2 8 l30 25 -33 59 c-18 32 -51 83 -73 113 l-40 53 -66 -63 c-68
-66 -67 -62 8 28 l42 52 -43 52 c-50 60 -177 171 -190 167 -4 -2 -29 -32 -54
-67 -56 -80 -58 -73 -5 21 22 39 39 72 38 73 -84 63 -253 159 -267 151 -4 -3
-27 -55 -51 -116 -24 -60 -44 -109 -46 -107 -2 1 10 54 26 117 16 63 30 120
30 126 0 6 -37 25 -82 42 -134 49 -120 52 -148 -29 -29 -83 -38 -77 -15 11 18
71 14 90 -9 36 -8 -20 -16 -36 -18 -36 -2 0 -3 19 -3 42 l0 42 -72 17 c-39 9
-98 20 -131 24 l-59 7 -7 -32 c-3 -18 -7 -58 -7 -89 -2 -53 -2 -52 -10 24 -5
43 -11 85 -13 92 -4 9 -32 13 -102 13 l-96 0 6 -47 c5 -34 4 -44 -3 -33 -6 8
-11 22 -11 31 0 37 -22 46 -95 38z"/>
<path d="M1338 2494 c-181 -28 -378 -113 -524 -228 l-79 -61 55 -7 c30 -4 68
-11 83 -17 24 -10 35 -6 94 35 262 179 567 241 853 174 91 -22 313 -125 345
-160 12 -13 -16 -2 -76 29 -342 179 -722 153 -1068 -71 l-63 -42 28 -20 c16
-11 50 -40 75 -63 40 -37 48 -41 59 -29 21 27 169 116 239 146 129 55 215 74
341 74 136 -1 205 -17 336 -79 307 -144 484 -378 521 -685 6 -48 7 -51 61 -80
31 -16 57 -28 60 -26 7 8 -17 171 -37 249 -118 461 -480 793 -941 862 -116 18
-246 18 -362 -1z"/>
<path d="M1522 2195 c-147 -34 -296 -119 -416 -240 -87 -86 -154 -184 -136
-195 41 -25 484 -78 723 -87 123 -4 173 -9 162 -16 -27 -15 -530 -2 -654 17
-91 14 -240 45 -295 62 -18 6 -19 -1 -12 -237 4 -134 9 -245 11 -247 2 -2 26
3 54 12 28 8 53 11 56 6 13 -22 -126 -426 -189 -549 -10 -18 -15 -35 -13 -37
3 -3 74 21 158 53 l154 59 7 114 c9 146 27 356 34 396 l6 31 -109 -4 -108 -3
153 40 c162 41 536 164 762 250 73 27 136 50 139 50 20 -2 -413 -199 -526
-240 -54 -19 -67 -29 -93 -70 -30 -47 -98 -116 -153 -155 l-27 -20 10 -140 c5
-77 10 -342 10 -590 l1 -450 45 49 c66 72 182 228 249 336 178 286 319 623
429 1020 39 140 46 133 16 -15 -42 -202 -102 -398 -177 -573 -24 -57 -41 -107
-38 -112 14 -23 179 -55 415 -80 224 -24 334 -42 413 -69 l56 -20 -44 64
c-100 147 -125 308 -86 570 5 33 10 128 10 210 1 122 -3 164 -19 223 -64 229
-229 422 -453 527 -40 19 -99 42 -132 51 -83 23 -309 28 -393 9z"/>
</g>
</svg>
